<?xml version="1.0" standalone="no"?>
<!DOCTYPE svg PUBLIC "-//W3C//DTD SVG 20010904//EN"
 "http://www.w3.org/TR/2001/REC-SVG-20010904/DTD/svg10.dtd">
<svg version="1.0" xmlns="http://www.w3.org/2000/svg"
 width="403.000000pt" height="403.000000pt" viewBox="0 0 403.000000 403.000000"
 preserveAspectRatio="xMidYMid meet">
<metadata>
Created by potrace 1.14, written by Peter Selinger 2001-2017
</metadata>
<g transform="translate(0.000000,403.000000) scale(0.100000,-0.100000)"
fill="#000000" stroke="none">
<path d="M1785 4009 c-27 -5 -88 -16 -135 -25 -47 -9 -96 -18 -110 -21 -74
-13 -312 -103 -425 -159 -153 -77 -219 -120 -340 -223 -106 -90 -187 -174
-257 -267 -29 -38 -55 -71 -58 -74 -29 -21 -204 -356 -233 -445 -61 -187 -95
-347 -79 -372 6 -8 117 -43 138 -43 2 0 4 -47 4 -105 0 -57 5 -139 11 -181 10
-61 9 -78 -1 -84 -7 -5 -18 -7 -24 -5 -6 2 -41 6 -79 9 l-67 7 0 -36 c0 -19 3
-35 8 -35 4 0 8 -10 8 -22 3 -47 14 -130 19 -139 3 -4 8 -25 10 -45 15 -113
138 -414 224 -544 20 -30 42 -68 50 -83 8 -15 27 -39 42 -55 16 -15 29 -33 29
-39 0 -7 4 -13 8 -13 4 0 16 -14 25 -30 22 -37 165 -180 180 -180 6 0 8 -3 4
-6 -9 -10 61 -75 133 -124 36 -24 70 -49 75 -55 60 -69 500 -281 536 -259 5 3
9 0 9 -5 0 -6 3 -10 8 -10 4 1 9 0 12 -1 3 -1 27 -4 53 -6 27 -2 64 -8 82 -13
24 -6 35 -6 39 2 3 9 5 9 5 0 1 -7 7 -10 15 -7 8 3 24 0 36 -6 15 -8 20 -8 16
-1 -4 6 -2 11 3 11 6 0 11 -4 11 -8 0 -4 17 -9 39 -10 21 -2 51 -6 67 -11 28
-8 286 -6 369 3 22 3 72 12 110 21 39 9 81 18 95 21 161 32 536 203 636 291
12 10 37 29 55 43 19 13 60 49 91 80 74 71 85 80 98 80 6 0 9 4 6 8 -2 4 26
41 64 82 38 41 69 81 70 88 0 6 5 12 12 12 6 0 9 3 5 6 -3 3 2 14 11 23 29 30
52 61 47 61 -3 0 2 11 11 25 9 14 19 23 23 21 3 -2 7 7 7 20 1 14 11 33 23 43
11 10 18 20 15 23 -5 6 34 97 45 108 24 22 81 156 84 198 2 28 13 68 25 90 11
22 19 42 16 44 -2 3 3 25 12 49 13 38 21 102 27 249 l2 35 -56 -3 -56 -3 2 93
c3 125 -5 229 -16 222 -15 -9 -10 23 5 39 8 8 35 20 60 27 56 16 63 33 46 127
-34 201 -118 426 -231 623 -105 184 -277 380 -443 506 -69 52 -227 149 -311
191 -162 81 -415 154 -604 173 -122 12 -375 11 -446 -1z"/>
</g>
</svg>
